<svg width="26" height="12" viewBox="0 0 26 12" fill="none" xmlns="http://www.w3.org/2000/svg">
<path d="M0.75 4.77295L6.72657e-08 4.77295L-6.72657e-08 6.27295L0.75 6.27295L0.75 4.77295ZM25.2803 6.05328C25.5732 5.76039 25.5732 5.28551 25.2803 4.99262L20.5074 0.21965C20.2145 -0.0732434 19.7396 -0.0732434 19.4467 0.21965C19.1538 0.512543 19.1538 0.987417 19.4467 1.28031L23.6893 5.52295L19.4467 9.76559C19.1538 10.0585 19.1538 10.5334 19.4467 10.8263C19.7396 11.1191 20.2145 11.1191 20.5074 10.8263L25.2803 6.05328ZM0.75 6.27295L24.75 6.27295L24.75 4.77295L0.75 4.77295L0.75 6.27295Z" fill="#F5F5F5"/>
</svg>
